<svg xmlns="http://www.w3.org/2000/svg" viewBox="0 0 75 24"><defs><style>.cls-1{fill:#1774e4;}</style></defs><g id="Isolation_Mode" data-name="Isolation Mode"><path class="cls-1" d="M16.61,20.66a8.37,8.37,0,0,1-2.38-.94c-1.07-.5-2.47-1.2-3.74-1.86-2.15-1.12-3-1.68-3.18-2.67-.16-1.18.82-2.12,2-3.22a18.4,18.4,0,0,1,2.86-2.18c.7-.45,1.3-.84,1.27-1.11s-.3-.34-.59-.51l-.17-.1A11.46,11.46,0,0,1,8.11,2.41a.43.43,0,0,1,.15-.33c.3-.23.53.07.66.24a12.6,12.6,0,0,0,1.45,1.59h0A15.64,15.64,0,0,0,13,5.84a16.54,16.54,0,0,0,1.59.82c.79.36,1.31.61,1.47,1.25s-.13,1.21-.71,2a17.91,17.91,0,0,1-3,3.16c-.85.72-1.41,1.2-1.37,1.71,0,.22.14.4.88,1.09A43.11,43.11,0,0,0,16,19.26c.93.66,1.15.82,1,1.17a.35.35,0,0,1-.23.2A.29.29,0,0,1,16.61,20.66Z"/><path class="cls-1" d="M5,21.39h0c-.43,0-.45-.45-.44-1.77A47.6,47.6,0,0,1,6.89,6.4a6.74,6.74,0,0,1,.33-.76c.29-.55.43-.81.75-.73H8c.4.08.34.53.29,1S8.14,6.71,8,7.37C7.8,8.61,7.46,10.28,7.1,12,6.58,14.67,6,17.65,5.67,19.62v0C5.46,21,5.37,21.39,5,21.39Z"/><path class="cls-1" d="M22.11,20.61a5.84,5.84,0,0,1-2.85-.7,5.26,5.26,0,0,1-2-1.91,5.1,5.1,0,0,1-.73-2.71,5.42,5.42,0,0,1,.41-2.1,5.58,5.58,0,0,1,1.15-1.72,5.41,5.41,0,0,1,1.72-1.15,5.15,5.15,0,0,1,2.08-.42,5.69,5.69,0,0,1,2.76.65,4.74,4.74,0,0,1,1.85,1.81,5.4,5.4,0,0,1,.66,2.7,1.34,1.34,0,0,1,0,.21,1,1,0,0,1,0,.2H18.48A3.58,3.58,0,0,0,19,17.33a3.25,3.25,0,0,0,1.31,1.26,4,4,0,0,0,1.94.46,3.78,3.78,0,0,0,3.26-1.68l1.4.73a5,5,0,0,1-2,1.85A5.92,5.92,0,0,1,22.11,20.61Zm-3.53-6.54h6.69a3.11,3.11,0,0,0-.61-1.37,3.19,3.19,0,0,0-1.17-.91,3.62,3.62,0,0,0-1.55-.33,3.78,3.78,0,0,0-1.6.32,2.94,2.94,0,0,0-1.76,2.29Z"/><path class="cls-1" d="M33.58,20.61a5.62,5.62,0,0,1-2.14-.41,5.42,5.42,0,0,1-1.76-1.13,5.19,5.19,0,0,1-1.18-1.7,5.11,5.11,0,0,1-.43-2.11,5.25,5.25,0,0,1,1.57-3.8,5.46,5.46,0,0,1,1.75-1.14,5.61,5.61,0,0,1,2.18-.42,6.23,6.23,0,0,1,1.89.29A4.9,4.9,0,0,1,37,11l-.72,1.29a3.8,3.8,0,0,0-2.43-.77,3.89,3.89,0,0,0-2,.5,3.57,3.57,0,0,0-1.33,1.37A3.89,3.89,0,0,0,30,15.26a3.84,3.84,0,0,0,.48,1.91,3.55,3.55,0,0,0,1.34,1.35,3.9,3.9,0,0,0,2,.49,4.06,4.06,0,0,0,1.32-.2,3.35,3.35,0,0,0,1.08-.56L37,19.53a4.79,4.79,0,0,1-1.51.78A5.83,5.83,0,0,1,33.58,20.61Z"/><path class="cls-1" d="M37.08,20.29,44,11.73h-6.1V10.22h9.46l-6.9,8.56h6.64v1.51Z"/><path class="cls-1" d="M53.45,20.61a5.84,5.84,0,0,1-2.85-.7,5.26,5.26,0,0,1-2-1.91,5.1,5.1,0,0,1-.73-2.71,5.42,5.42,0,0,1,.41-2.1,5.58,5.58,0,0,1,1.15-1.72,5.41,5.41,0,0,1,1.72-1.15,5.15,5.15,0,0,1,2.08-.42,5.69,5.69,0,0,1,2.76.65,4.74,4.74,0,0,1,1.85,1.81,5.4,5.4,0,0,1,.66,2.7,1.34,1.34,0,0,1,0,.21,1,1,0,0,1,0,.2H49.82a3.67,3.67,0,0,0,.47,1.86,3.33,3.33,0,0,0,1.32,1.26,4,4,0,0,0,1.94.46,3.78,3.78,0,0,0,3.26-1.68l1.4.73a5,5,0,0,1-2,1.85A5.92,5.92,0,0,1,53.45,20.61Zm-3.53-6.54h6.69A3.11,3.11,0,0,0,56,12.7a3.19,3.19,0,0,0-1.17-.91,3.62,3.62,0,0,0-1.55-.33,3.78,3.78,0,0,0-1.6.32,2.94,2.94,0,0,0-1.76,2.29Z"/><path class="cls-1" d="M65,20.61a5.84,5.84,0,0,1-2.85-.7,5.19,5.19,0,0,1-2-1.91,5.1,5.1,0,0,1-.73-2.71,5.42,5.42,0,0,1,.41-2.1A5.58,5.58,0,0,1,61,11.47a5.36,5.36,0,0,1,3.8-1.57,5.69,5.69,0,0,1,2.76.65,4.74,4.74,0,0,1,1.85,1.81,5.4,5.4,0,0,1,.66,2.7,1.34,1.34,0,0,1,0,.21,1,1,0,0,1,0,.2H61.35a3.57,3.57,0,0,0,.47,1.86,3.33,3.33,0,0,0,1.32,1.26,4,4,0,0,0,5.2-1.22l1.4.73a5,5,0,0,1-2,1.85A5.85,5.85,0,0,1,65,20.61Zm-3.54-6.54h6.69a3,3,0,0,0-.6-1.37,3.19,3.19,0,0,0-1.17-.91,3.62,3.62,0,0,0-1.55-.33,3.78,3.78,0,0,0-1.6.32,2.92,2.92,0,0,0-1.17.9A3.07,3.07,0,0,0,61.44,14.07Z"/></g></svg>
